<svg width="60" height="60" viewBox="0 0 60 60" fill="none" xmlns="http://www.w3.org/2000/svg">
<path d="M58.7857 51.8969H52.4329C56.6497 46.3031 58.9721 39.3085 58.9721 32.2017C58.9721 14.9928 45.9751 0.992188 29.9982 0.992188C14.0219 0.992188 1.02429 14.9934 1.02429 32.2017C1.02429 39.3097 3.34548 46.3043 7.56163 51.8969H1.21433C0.544019 51.8969 0 52.4409 0 53.1112V57.7949C0 58.4652 0.544019 59.0092 1.21433 59.0092H18.5495C19.2198 59.0092 19.7638 58.4652 19.7638 57.7949V52.5775C19.7638 52.2885 19.6612 52.0098 19.4742 51.7906L19.4068 51.7111C19.3388 51.6303 19.2599 51.5593 19.173 51.4998C13.207 47.365 9.5003 39.9709 9.5003 32.201C9.5003 19.6655 18.6958 9.4676 29.9982 9.4676C41.2999 9.4676 50.4954 19.6661 50.4954 32.201C50.4954 40.0037 46.7656 47.4136 40.7632 51.5398C40.4335 51.7663 40.2368 52.1403 40.2368 52.5398V57.7936C40.2368 58.4639 40.7808 59.008 41.4511 59.008H58.7857C59.456 59.008 60 58.4639 60 57.7936V53.11C60 52.4403 59.4572 51.8969 58.7857 51.8969Z" fill="white"/>
</svg>
